/* XPM */
static char *black[] = {
/* columns rows colors chars-per-pixel */
"60 60 98 2 ",
"   c #1F1F1F",
".  c #222222",
"X  c #2C2C2C",
"o  c #342F2A",
"O  c #3F362D",
"+  c #2A2E33",
"@  c #2F3133",
"#  c #333333",
"$  c #3D3732",
"%  c #3F3A35",
"&  c #32363A",
"*  c #37393B",
"=  c #3B3B3B",
"-  c #453B2F",
";  c #413C36",
":  c #4A3F33",
">  c #413E3A",
",  c #7D5118",
"<  c #5C472E",
"1  c #4D4236",
"2  c #44403C",
"3  c #4B443C",
"4  c #534333",
"5  c #594734",
"6  c #5B4834",
"7  c #50453A",
"8  c #55493C",
"9  c #5B4C3C",
"0  c #644B2C",
"q  c #6A4D2C",
"w  c #7B5324",
"e  c #75522C",
"r  c #7E592D",
"t  c #634C34",
"y  c #684D33",
"u  c #634F39",
"i  c #6E5234",
"p  c #67523B",
"a  c #6D5639",
"s  c #735636",
"d  c #7B5A32",
"f  c #75593B",
"g  c #7B5D3C",
"h  c #3C3E40",
"j  c #3E4043",
"k  c #434343",
"l  c #4B4641",
"z  c #4D4943",
"x  c #444749",
"c  c #45484C",
"v  c #4C4C4C",
"b  c #534A41",
"n  c #584D42",
"m  c #52514F",
"M  c #5C5249",
"N  c #4F5051",
"B  c #4F5358",
"V  c #545454",
"C  c #5D5751",
"Z  c #535558",
"A  c #5B5B5B",
"S  c #635340",
"D  c #62564A",
"F  c #66594A",
"G  c #765D42",
"H  c #7A5E40",
"J  c #735E48",
"K  c #636363",
"L  c #6A6A6A",
"P  c #885712",
"I  c #A15F05",
"U  c #94601E",
"Y  c #9A611D",
"T  c #A36416",
"R  c #A86610",
"E  c #AB6C1C",
"W  c #B36E16",
"Q  c #B5701F",
"!  c #855A26",
"~  c #895C24",
"^  c #855C2F",
"/  c #8B5F2B",
"(  c #815D36",
")  c #805F3C",
"_  c #88602F",
"`  c #956225",
"'  c #9A6424",
"]  c #9F6822",
"[  c #97652D",
"{  c #9F6B29",
"}  c #8A6234",
"|  c #886239",
" . c #926532",
".. c #A36924",
"X. c #AB6D24",
"o. c #A56B29",
"O. c #A8763E",
"+. c None",
/* pixels */
"+.+.+.+.+.+.+.+.+.+.+.+.+.+.+.+.+.+.+.+.+.+.+.+.+.+.+.+.+.+.+.+.+.+.+.+.+.+.+.+.+.+.+.+.+.+.+.+.+.+.+.+.+.+.+.+.+.+.+.+.",
"+.+.+.+.+.+.+.+.+.+.+.+.+.+.+.+.+.+.+.+.+.+.+.+.+.+.+.+.+.+.+.+.+.+.+.+.+.+.+.+.+.+.+.+.+.+.+.+.+.+.+.+.+.+.+.+.+.+.+.+.",
"+.+.+.+.+.+.+.+.+.+.+.+.+.+.+.+.+.+.+.+.+.+.+.+.+.+.+.+.+.+.+.+.+.+.+.+.+.+.+.+.+.+.+.+.+.+.+.+.+.+.+.+.+.+.+.+.+.+.+.+.",
"+.+.+.+.+.+.+.+.+.+.+.+.+.+.+.+.+.+.+.+.+.+.+.[ f S n 3 k h h = ; 1 4 q ` +.+.+.+.+.+.+.+.+.+.+.+.+.+.+.+.+.+.+.+.+.+.+.",
"+.+.+.+.+.+.+.+.+.+.+.+.+.+.+.+.+.+.+.+.} G M x x k k k = = = * * # # + @ - 0 q +.+.+.+.+.+.+.+.+.+.+.+.+.+.+.+.+.+.+.+.",
"+.+.+.+.+.+.+.+.+.+.+.+.+.+.+.+.+...g M v v v x x x h j = = * # # # # X X X X @ - < ' +.+.+.+.+.+.+.+.+.+.+.+.+.+.+.+.+.",
"+.+.+.+.+.+.+.+.+.+.+.+.+.+.+.X._ V V N N v v v l k k = = = % # # X X X X . X X @ # # ^ +.+.+.+.+.+.+.+.+.+.+.+.+.+.+.+.",
"+.+.+.+.+.+.+.+.+.+.+.+.+.+. .F Z N V m v v v v x x k k 2 = * # # # X X . X . X . X X + 4 ! +.+.+.+.+.+.+.+.+.+.+.+.+.+.",
"+.+.+.+.+.+.+.+.+.+.+.+.Q ) C V V V V V N m v v v x k k > > = * # # X X X . . . . . X X @ $ e +.+.+.+.+.+.+.+.+.+.+.+.+.",
"+.+.+.+.+.+.+.+.+.+.+.T g Z Z V V V m Z V m m N v z x k k > = * # # X X X .   . . . . X X X @ i +.+.+.+.+.+.+.+.+.+.+.+.",
"+.+.+.+.+.+.+.+.+.+.+.H A Z V V Z Z V C Z Z V m m N v x k 2 = = # # # X X . . . . . . . . X X @ y +.+.+.+.+.+.+.+.+.+.+.",
"+.+.+.+.+.+.+.+.+.+.J Z V V V Z A A A A A A A V V N v v x k 2 = * # # X X . .   . . . . X . X X # t +.+.+.+.+.+.+.+.+.+.",
"+.+.+.+.+.+.+.+.+.| V V Z V Z A A A K A A A A A Z V N v c l k h = $ # X X . . .       . . . X X X # e +.+.+.+.+.+.+.+.+.",
"+.+.+.+.+.+.+.+._ Z V V V V A A A A K K K K K A A Z V m v x k 2 = * # @ X X . .           . . X X # # w +.+.+.+.+.+.+.+.",
"+.+.+.+.+.+.+.+.F V N V V A C A A K K L L K K A A A V m v v k k > * # @ X X . .           . . . . X @ : +.+.+.+.+.+.+.+.",
"+.+.+.+.+.+.+.d N N m N Z V A A K L L L L L K K A A V V m c k k = = # # X X .               . . X X X # e +.+.+.+.+.+.+.",
"+.+.+.+.+.+...m N N N m V Z C K K L L L L L L K A A A V N v l 2 h * % # X X .                 . . . X # % +.+.+.+.+.+.+.",
"+.+.+.+.+.W a v v v v N m Z A A K K L L L L K K A A V V v v x k 2 = # # X X X                   . . X X @ 0 +.+.+.+.+.+.",
"+.+.+.+.+.U v v v v v v m Z Z A A K L L L K K K A A V V v v x k 2 * # # X X .                   . . X X # * , +.+.+.+.+.",
"+.+.+.+.+.a v v l v v N m V Z A K K K K L K K A A A V V N v k k h = # # X X X                   . . . X X # t +.+.+.+.+.",
"+.+.+.+.+.n x x x x c v v m Z A A A K K K A A A A V V m v x k k = * $ X X X . .   .             . . . X X # 1 +.+.+.+.+.",
"+.+.+.+./ v l k k l l v v v V C A A A A K A A A Z V V v v l k 2 * * # # X X . .                 . . . . X @ ; +.+.+.+.+.",
"+.+.+.+.r k l k k l k x v v m V V A C A A A V A V V v v c k k h = % # X X . .   . .               . . . X @ # ^ +.+.+.+.",
"+.+.+.+.t k k h h h k k x v v m V V Z Z V V V V m m v v x k 2 = * # + X X X . .     .             . . X X X # 6 +.+.+.+.",
"+.+.+.+.8 k = = > = h k k x v v N m V m V N V m v v c x l 2 = * * # o X X   .         .             . . X X # 7 +.+.+.+.",
"+.+.+.o.l j = = = = > h k l x x v v N N N m v v v x k k k h = * # # X X . . .   . .                 . . X X # ; +.+.+.+.",
"+.+.+.o.2 = = * = = * > = k k l l c c v v x v x l k k k > = * # # X X X X . . .   .   .             . . X o # ; +.+.+.+.",
"+.+.+...h * * % # # * * = h h k k x l x x l k k k k 2 h = = # # X X . .       . .                   . . . X # * +.+.+.+.",
"+.+.+.' h * # # # # # # = = > h > 2 k k k k h k 2 = = * * # # @ X X . . .     . . .               . . . X @ # * +.+.+.+.",
"+.+.+.o = & # # @ @ # # # # * > = h = h 2 > = = = = = $ # # o X X X . . . . . .       .           . . . . X # * - +.+.+.",
"+.+.+.O.& $ # X X X o @ @ # # # # = * = = * $ * * * # # # X X X . . . .   . .   .   .             . . . X X # $ +.+.+.+.",
"+.+.+.] * # @ @ X X X X X o # # # * # # # * # # # # @ @ X X X . . .     . . . .     .               . . X X # = +.+.+.+.",
"+.+.+...; # @ X X . . X X X X o @ @ @ @ @ @ @ @ o X X X X X . . . . .   . .       .                 . . X # $ 2 +.+.+.+.",
"+.+.+.o.2 * # X . X X . . X X X X o X o X o @ X X X . X . . .   .   . . .   . . .   .             . . . X @ # 7 +.+.+.+.",
"+.+.+.X.4 * # X X . . . . . . . X . X X X X X X X . . X . . .   . .   . . .   .                   . . X X # # 9 +.+.+.+.",
"+.+.+.+.e * # X X . X   . . . . . . . . . . . . . . . . .   . .     . .   . . .   . .   .       . . . . X # * a +.+.+.+.",
"+.+.+.+./ = * @ X . . . .       .   . . . . .   .     . .     . . . . .   .       .             . . X X o # > +.+.+.+.+.",
"+.+.+.+.+.1 # # X X X . .         .   . . . . . . . . . . . . . .     . .   .   .               . . X X # * 3 +.+.+.+.+.",
"+.+.+.+.+.9 = $ # X . . .             .   . . .     .     .     . .   .     . .               . . . X X # = 8 +.+.+.+.+.",
"+.+.+.+.+.e = * # X X X . .         .           . . . . . . . .   . .   .                     . . X X # * = q +.+.+.+.+.",
"+.+.+.+.+.R 1 * # # X . X . . .         .     .       . . .   . .     . .               .   . . . X @ # = 2 T +.+.+.+.+.",
"+.+.+.+.+.+., j # # X X . . . . .       .     . . .       .       .       .               . . . X X # $ h r W +.+.+.+.+.",
"+.+.+.+.+.+.I 4 = * @ o X . . .             .     .   .     .     . .                   . . X . X # # = u +.+.+.+.+.+.+.",
"+.+.+.+.+.+.+.P k = # @ X X X . . .   .             .     .                         . . . . X X # # = k +.+.+.+.+.+.+.+.",
"+.+.+.+.+.+.+.+.0 k = # # X X . . . . .                                         . . . . . X X @ # * > y +.+.+.+.+.+.+.+.",
"+.+.+.+.+.+.+.+.+.5 j * # # X X X . . . . .                                   . . . . . X X X $ * h 9 Y +.+.+.+.+.+.+.+.",
"+.+.+.+.+.+.+.+.+...3 j % # @ X X . X . . . .       .         .         . . . . . . X X X @ # = = S +.+.+.+.+.+.+.+.+.+.",
"+.+.+.+.+.+.+.+.+.+.' l = = # # X X X X . . . . . . . . .   . . . . . . . . . X . X X o @ # = h l +.+.+.+.+.+.+.+.+.+.+.",
"+.+.+.+.+.+.+.+.+.+.+./ 7 j = * # @ X X X X . . . . . . . . . . . . . . . . X X X X X # * = h 8 ) +.+.+.+.+.+.+.+.+.+.+.",
"+.+.+.+.+.+.+.+.+.+.+.+.{ 6 j = % # # @ X X X X X . X . . X . . X . . X X X X X o # # = = h u +.+.+.+.+.+.+.+.+.+.+.+.+.",
"+.+.+.+.+.+.+.+.+.+.+.+.+.X.u k h = * # # X o X X X X X X X . X X X X X X + X # * * = = k u +.+.+.+.+.+.+.+.+.+.+.+.+.+.",
"+.+.+.+.+.+.+.+.+.+.+.+.+.+.+.r 8 k h = = * # # @ @ X @ o X X @ X X X # # # # % = = k 9 p +.+.+.+.+.+.+.+.+.+.+.+.+.+.+.",
"+.+.+.+.+.+.+.+.+.+.+.+.+.+.+.+.' r 3 x h = = * * # # * # # # # # * % * * * = 2 h z s +.+.+.+.+.+.+.+.+.+.+.+.+.+.+.+.+.",
"+.+.+.+.+.+.+.+.+.+.+.+.+.+.+.+.+.+.E e 7 x j 2 2 = = = = = = = = = = = 2 k x z d +.+.+.+.+.+.+.+.+.+.+.+.+.+.+.+.+.+.+.",
"+.+.+.+.+.+.+.+.+.+.+.+.+.+.+.+.+.+.+.+.E ~ s n z l k 2 x j k k k k l z 9 u ! +.+.+.+.+.+.+.+.+.+.+.+.+.+.+.+.+.+.+.+.+.",
"+.+.+.+.+.+.+.+.+.+.+.+.+.+.+.+.+.+.+.+.+.+.+.+.+.( } g f 5 5 p a r +.+.+.+.+.+.+.+.+.+.+.+.+.+.+.+.+.+.+.+.+.+.+.+.+.+.",
"+.+.+.+.+.+.+.+.+.+.+.+.+.+.+.+.+.+.+.+.+.+.+.+.+.+.+.+.+.+.+.+.+.+.+.+.+.+.+.+.+.+.+.+.+.+.+.+.+.+.+.+.+.+.+.+.+.+.+.+.",
"+.+.+.+.+.+.+.+.+.+.+.+.+.+.+.+.+.+.+.+.+.+.+.+.+.+.+.+.+.+.+.+.+.+.+.+.+.+.+.+.+.+.+.+.+.+.+.+.+.+.+.+.+.+.+.+.+.+.+.+.",
"+.+.+.+.+.+.+.+.+.+.+.+.+.+.+.+.+.+.+.+.+.+.+.+.+.+.+.+.+.+.+.+.+.+.+.+.+.+.+.+.+.+.+.+.+.+.+.+.+.+.+.+.+.+.+.+.+.+.+.+.",
"+.+.+.+.+.+.+.+.+.+.+.+.+.+.+.+.+.+.+.+.+.+.+.+.+.+.+.+.+.+.+.+.+.+.+.+.+.+.+.+.+.+.+.+.+.+.+.+.+.+.+.+.+.+.+.+.+.+.+.+."
};
