/* XPM */
static char *white[] = {
/* columns rows colors chars-per-pixel */
"60 60 67 1 ",
"  c #959391",
". c #9E9E9E",
"X c #A2978C",
"o c #A69B8E",
"O c #AA9D8E",
"+ c #A49D95",
"@ c #A89E93",
"# c #A19E9A",
"$ c #ABA195",
"% c #A5A19D",
"& c #ABA49C",
"* c #B3A492",
"= c #B8A694",
"- c #B5A897",
"; c #BBAA97",
": c #B0A59A",
"> c #B3A99D",
", c #BDAD9C",
"< c #BEB09F",
"1 c #9F9FA1",
"2 c #9FA0A1",
"3 c #A4A4A4",
"4 c #ABA7A3",
"5 c #ADA9A3",
"6 c #A6A7A8",
"7 c #A7A8A9",
"8 c #ABABAB",
"9 c #B5ADA4",
"0 c #BAAEA2",
"q c #B2AFAB",
"w c #BDB1A4",
"e c #B5B1AD",
"r c #AEAFB0",
"t c #AEB0B1",
"y c #B3B3B3",
"u c #B6B7B9",
"i c #B7B8B9",
"p c #BBBBBB",
"a c #C1AD94",
"s c #C1AE9A",
"d c #C6B29D",
"f c #CAB39D",
"g c #CDB89F",
"h c #C4B5A5",
"j c #C9B6A2",
"k c #CBBAA6",
"l c #C3B6AA",
"z c #C5B9AD",
"x c #CBBBA8",
"c c #D1BCA5",
"v c #D9BFA1",
"b c #D1BEAA",
"n c #D6C1AC",
"m c #DBC4AC",
"M c #D5C3B0",
"N c #DCC7B2",
"B c #E1C7AB",
"V c #E4CAAE",
"C c #E5CCB3",
"Z c #EAD1B6",
"A c #E9D0B8",
"S c #C3C3C3",
"D c #CBCBCB",
"F c #D3D3D3",
"G c #DBDBDB",
"H c gray88",
"J c None",
/* pixels */
"JJJJJJJJJJJJJJJJJJJJJJJJJbkxlXXhjkkJJJJJJJJJJJJJJJJJJJJJJJJJ",
"JJJJJJJJJJJJJJJJJJJJJkz0>&&467663#+@-wJJJJJJJJJJJJJJJJJJJJJJ",
"JJJJJJJJJJJJJJJJJJflq9qrrr8888666333..+&$JJJJJJJJJJJJJJJJJJJ",
"JJJJJJJJJJJJJJJJf0eeyyyyyryr888763311...##OJJJJJJJJJJJJJJJJJ",
"JJJJJJJJJJJJJJMdeyyyyuyyueyyerr7746331.11#.+OJJJJJJJJJJJJJJJ",
"JJJJJJJJJJJJJh9uupppppippiyyyye8r864331#.1..2oJJJJJJJJJJJJJJ",
"JJJJJJJJJJJJheppppppppppppppuyyyrr8633311...1..@JJJJJJJJJJJJ",
"JJJJJJJJJJnwiupppSpSSSSSpSSppppyyyr8843113......@JJJJJJJJJJJ",
"JJJJJJJJJb0pppppSSSSSSDSSSSSpppipeyrq664311#.....oJJJJJJJJJJ",
"JJJJJJJJM0upppSSSSDDDDDDDDSSSSppppyyr8633331......oJJJJJJJJJ",
"JJJJJJJJwuppSSSSDDDDDDDDDDDDSSSSpppyyr883331..#1..1@JJJJJJJJ",
"JJJJJJJwyppppSSDDDFFFFFDDDDDDSSSppppyyr866331111....JJJJJJJJ",
"JJJJJJleippSSDDDFFFFGFFFFFFDDDSSSpppiyrq7646311#.... JJJJJJJ",
"JJJJJb0ypppSSDDFFGGGGGGGFFFDDDDDSSpppyyr88643331.....+JJJJJJ",
"JJJJJwyiipSSDDDFGGGHGGGGFGFFDFDSSSSpiierr8876431......JJJJJJ",
"JJJJxqypppSSDDFFGGHHGGGGGFFFFDDDDSSppiirr8876631......+JJJJJ",
"JJJJ>uyypSSSDFFFGHHGGHGGGGFFFFDDDSSpppyeerr866433......JJJJJ",
"JJJseeupppSDDDFGFGGHHGHGGFGFFDDDDSSSppiittr88666231.....JJJJ",
"JJJ>yypppSSSDDFFGGHGHHGGGFGFFDDDDSSpSpiyrrrr888433......JJJJ",
"JJJeryyypSSDDDFFGGGGGGGGGGFFFFFDDDSSSppyyerq886633......1JJJ",
"JJsqyyyppSSSDDFFGGGGGGGGGFFFFFDDSDSSSppeyerrrr84623......JJJ",
"JJw8ryyppSSDDDFFFFGGGGGGGGFFFDDDDSSSpppiyyytqr864331....#JJJ",
"JJ9rryyipSSSDDDFFGGGGFGFFFFFFDDDDSSSSpiyyyyy8888633.......JJ",
"JJ>ryeypppSSDDFFFFFFFGFGGFFFDFDDDSSSpppiyyytrr886333.....#JJ",
"Jh58qyyippSSDDDDFFFFGFFFFFFFDDDDDSSSppieyyyyer887633...2.+JJ",
"Jx58rreypppSSDDDDFFFFFFFDFDFDDDSSSSppppiyyyrrrq874331.....JJ",
"Jl78rryypppSSDDDDDFFDFFDFFDDDDDSSSSpppiiuyyyyr887433.....#JJ",
"Jl777ryyuppSSSDDDDDDDFFDDDDDDDSSSSpSpypepyyyerr887333...2.JJ",
"J>6788eyyuppSSSDDDDDDDDDDDDDSDSSSppppiiiyyyyrrr776332.....JJ",
"J 7478rryepppSSSDDSDDDDDSDDSSSSSSpppiiiiyuueer8876333...1.JJ",
"Jz36788rryyppSSSSSSDDDDSDSSDSSpSppipziiiuyyyyr8857332....2JJ",
"Jl36477ryyyppppSSSSSSSSDSSSpSSSpppppiiipyyyyrqr877332...1#JJ",
"Jh%63647qryyuppSSSSSSSSSSSSSpSppppppizuuyyyyrr8876322..2.#JJ",
"Jh&666678rqyyppppppSpSSSSppppppppppyiiuyiyytrr88763%2..2##JJ",
"Jk&6366678qryyypppSppSpppSpppppppppyiipyyyyeq88763333....#JJ",
"Jj&36346788ryyyyiiippppppppppppyiiipupyyyyyqrr7833%2....#%JJ",
"JJ0366647788rryyyuuppiipppippippyppyiiuyytqr8887632...1%2#JJ",
"JJ,3636648787qryyyyyyiippipepiiiiiiiyeyyyerr88643233.1.1%JJJ",
"JJd46343674788rreyeiyipyipipypppzuypiyyeyrrr88833%3..1.13JJJ",
"JJn96366648788rrryeyyyyyeiiipyeiyuyyyyyyrr88866433..2..3+JJJ",
"JJJ,6643666477rrrqyyyyyyyuyypyyyiyyyyyeqqr8876633...1312JJJJ",
"JJJM@63666648778rqrrryyyyyyyyuyyyyyeytrr8r8874333.....3oJJJJ",
"JJJJ,46346367588rrrqrqyyyyyyyyyyyyyyrerr88863331.3..33.JJJJJ",
"JJJJN&633666777778rqryyreyyyyyyytyrrrrr88866333%.3.1.2@JJJJJ",
"JJJJJk36466644678888r8rqyryyyryqyrrr888866433311..113#JJJJJJ",
"JJJJJm043333666677788rrrrrrrrer8r88r88866663311%.3%3#:JJJJJJ",
"JJJJJJb&63363346678875r78r88r8rqr888868646333311.1#3&JJJJJJJ",
"JJJJJJJj&64366666647775788878877868466463113111%313#aJJJJJJJ",
"JJJJJJJCj&66363634664667778578776766633333223.2322+sJJJJJJJJ",
"JJJJJJJJCh%663633336646676777766646343333.%122233+,JJJJJJJJJ",
"JJJJJJJJJCx&663366336364666343634633%331.3%23%22+dJJJJJJJJJJ",
"JJJJJJJJJJAk&4663363333336336433313313313222323$dJJJJJJJJJJJ",
"JJJJJJJJJJJAb>3766363433333333333333331333333#-fJJJJJJJJJJJJ",
"JJJJJJJJJJJJJmh&366363333334333331313133333.$,gJJJJJJJJJJJJJ",
"JJJJJJJJJJJJJJVM,@666333333333333333333333o,cJJJJJJJJJJJJJJJ",
"JJJJJJJJJJJJJJJJCM=$66666636333333333333$*nJJJJJJJJJJJJJJJJJ",
"JJJJJJJJJJJJJJJJJJCnj;5544336663333%&5*dnCJJJJJJJJJJJJJJJJJJ",
"JJJJJJJJJJJJJJJJJJJJZCmcs0,99#+90-,sfmBJJJJJJJJJJJJJJJJJJJJJ",
"JJJJJJJJJJJJJJJJJJJJJJJJVBBCV,,mVvBJJJJJJJJJJJJJJJJJJJJJJJJJ",
"JJJJJJJJJJJJJJJJJJJJJJJJJJJJJJJJJJJJJJJJJJJJJJJJJJJJJJJJJJJJ"
};
